Patient4_TMGait_0pt6_01_left_21_EMG.mot
version=1
nRows=13
nColumns=33
inDegrees=no
endheader
time	1LAddLong	2LGlutMax	3LGlutMed	4LIliopsoas	5LSemiMemb	6LBicFemLong	7LRecFem	8LVastMed	9LVastLat	10LGasMed	11LTibAnt	12lTibPost	13LPeroneusLong	14LSol	15LExtDigLong	16LFlexDigLong	17RAddLong	18RGlutMax	19RGlutMed	20RIliopsoas	21RSemiMemb	22RBicFemLong	23RRecFem	24RVastMed	25RVastLat	26RGasMed	27RTibAnt	28RTibPost	29RPeroneusLong	30RSol	31RExtDigLong	32RFlexDigLong
26.39	0.003357	0.11826	0.13397	0.007782	0.037994	-0.11948	-0.016937	-0.005493	0.047455	0.19913	0.004883	0.001068	-0.23071	-0.016785	0.0737	-0.016632	-0.099487	0.091858	0.90988	-0.079651	-0.05127	-0.48752	-0.059052	-0.15564	0.18143	-0.005493	-0.11643	-0.005646	0.21118	0.23865	-0.003052	0.001526
26.391	-0.002136	0.057831	0.15823	0.010681	0.026245	-0.027313	0.007019	-0.007172	0.043793	0.3775	-0.001068	0.010986	-0.031128	-0.18066	-0.006256	-0.005646	-0.13092	0.07019	0.48813	-0.032959	0.10712	-0.43213	-0.44693	-0.32745	0.088959	0.00412	-0.10925	-0.001068	0.40527	0.16525	-0.003204	-0.008087
26.392	0.011292	0.001831	0.1709	0.005798	0.02121	0.089722	0.007629	0.006866	0.036926	0.38116	-0.031586	0.005493	-0.31921	-0.20447	-0.016327	0.019379	-0.050049	0.086823	0.4129	-0.032501	0.23331	-0.41519	-0.42496	-0.57968	0.19928	-0.001068	-0.048218	-0.002747	0.052338	0.021362	-0.002747	0.000153
26.393	0.009766	0.040436	0.18387	0.005493	0.017395	0.083618	-0.005188	-0.006866	0.04364	0.45898	-0.034637	0.002899	-0.3006	-0.1091	-0.059052	0.036163	0.01358	0.067444	0.29526	0.009003	0.28748	-0.41641	-0.35736	-0.47546	0.26825	0.000458	-0.11017	0.000153	-0.88348	-0.067139	-0.002594	-0.006409
26.394	0.002594	0.028992	0.16403	-0.003357	-0.001221	0.12497	0.003357	0.000458	0.023804	0.37598	-0.022278	0.003662	-0.22324	-0.07431	-0.12238	0.011749	0.044708	-0.029602	-0.01236	0.00824	0.11566	-0.47424	-0.25986	-0.19638	0.066528	-0.009003	-0.001068	-0.00412	-0.47455	-0.042114	-0.003662	-0.006409
26.395	0.003052	0.027618	0.15884	0.004578	-0.02243	0.068359	-0.014954	0.000305	0.024567	0.20248	0.002899	-0.008545	-0.13306	-0.089417	-0.075378	-0.028992	0.084076	0.088501	-0.31448	0.037231	-0.015411	-0.62775	-0.029602	-0.20355	-0.11475	-0.004272	0.062561	-0.003204	0.046082	0.00885	-0.004883	-0.003357
26.396	0.014038	0.058899	0.17273	-0.001831	-0.004578	-0.00351	-0.012665	0.002289	0.014648	-0.40695	0.014801	0.003357	-0.046082	-0.052185	-0.035095	-0.016632	0.14832	0.13138	-0.41992	0.000763	-0.21408	-0.63721	-0.074615	-0.29037	-0.2063	-0.009308	0.07019	-0.000763	0.34012	0.011749	-0.000305	-0.005188
26.397	0.004883	0.07782	0.21164	0.00412	0.020599	-0.046082	-0.011139	0.007324	0.004578	-0.55389	0.018158	0.013428	-0.10422	0.031891	-0.016479	-0.002899	0.16342	-0.023499	-0.37231	-0.058289	-0.20218	-0.35431	-0.22553	-0.32715	0.053558	-0.008545	0.1358	-0.001831	-0.029144	0.010681	0.00473	-0.010376
26.398	0.008392	0.046844	0.16266	0.01358	0.0177	-0.00412	0.000916	0.000458	0.008698	-0.43793	0.014343	0.02243	-0.16235	0.13306	-0.00412	-0.003967	0.14099	0.030518	0.26993	-0.09964	-0.10468	-0.094452	-0.17319	-0.40192	0.40359	-0.007019	0.21133	-0.008392	-0.21896	-0.002899	-0.003662	-0.00824
26.399	0.003815	0.074463	0.31464	-0.013733	-0.007019	0.049133	-0.008392	0.005646	-0.012207	-0.25559	0.009003	0.024567	0.015717	0.18448	-0.011292	-0.00351	0.16998	-0.08667	0.55695	-0.09903	-0.097656	0.095215	0.070496	-0.2565	0.52734	-0.007324	0.15396	-0.001068	0.20218	-0.031738	-0.002289	-0.010376
26.4	-0.00824	0.036774	0.28671	-0.016937	-0.009308	0.032959	-0.013885	0.006561	-0.033722	-0.19424	-0.027466	0.007477	-0.07309	0.21515	-0.031128	0.000305	0.093994	-0.16495	0.067596	0.065308	0.051117	0.13031	0.058594	-0.10895	0.89447	-0.004578	0.25452	-0.00061	0.03418	-0.037079	-0.001526	-0.00412
26.401	0.003815	0.012054	0.28732	-0.008087	-0.00885	0.041962	-0.005951	0.007629	-0.031128	-0.18707	0.042114	0.032806	-0.15976	0.17258	-0.016174	-0.008698	-0.011749	-0.35965	-0.28229	0.20706	0.21194	0.14465	-0.031738	0.078278	0.90103	-0.003052	0.24811	-0.001221	-0.072632	-0.06958	-0.006409	-0.00824
26.402	-0.005493	0.023956	0.31509	0.002594	0.001678	0.044708	0.011292	0.007629	-0.038757	-0.17624	0.072784	0.011139	0.079346	0.076599	0.067596	-0.000763	-0.065308	-0.42343	-0.37277	0.15167	0.1712	0.12528	-0.11063	0.1619	0.29343	0.004578	0.26337	-0.006104	-0.11948	-0.10407	-0.000916	-0.007172
